<?xml version="1.0" encoding="UTF-8" standalone="no"?>
<svg
   xmlns:dc="http://purl.org/dc/elements/1.1/"
   xmlns:cc="http://creativecommons.org/ns#"
   xmlns:rdf="http://www.w3.org/1999/02/22-rdf-syntax-ns#"
   xmlns:svg="http://www.w3.org/2000/svg"
   xmlns="http://www.w3.org/2000/svg"
   xmlns:xlink="http://www.w3.org/1999/xlink"
   id="svg8"
   version="1.1"
   viewBox="0 0 45.474659 42.13839"
   height="42.13839mm"
   width="45.474659mm">
  <defs
     id="defs2">
    <linearGradient
       id="linearGradient29763">
      <stop
         id="stop29759"
         offset="0"
         style="stop-color:#99760a;stop-opacity:1" />
      <stop
         style="stop-color:#bf930d;stop-opacity:1"
         offset="0.49052733"
         id="stop29767" />
      <stop
         id="stop29761"
         offset="1"
         style="stop-color:#efb810;stop-opacity:1" />
    </linearGradient>
    <linearGradient
       id="linearGradient29753">
      <stop
         id="stop29749"
         offset="0"
         style="stop-color:#545454;stop-opacity:1" />
      <stop
         style="stop-color:#a0a0a0;stop-opacity:1"
         offset="0.46967801"
         id="stop29757" />
      <stop
         id="stop29751"
         offset="1"
         style="stop-color:#545454;stop-opacity:0.98039216" />
    </linearGradient>
    <linearGradient
       gradientUnits="userSpaceOnUse"
       y2="83.286415"
       x2="109.85867"
       y1="103.31915"
       x1="72.628006"
       id="linearGradient29755"
       xlink:href="#linearGradient29753" />
    <linearGradient
       gradientUnits="userSpaceOnUse"
       y2="69.679268"
       x2="114.96134"
       y1="70.667961"
       x1="81.747017"
       id="linearGradient29765"
       xlink:href="#linearGradient29763" />
  </defs>
  <metadata
     id="metadata5">
    <rdf:RDF>
      <cc:Work
         rdf:about="">
        <dc:format>image/svg+xml</dc:format>
        <dc:type
           rdf:resource="http://purl.org/dc/dcmitype/StillImage" />
        <dc:title></dc:title>
      </cc:Work>
    </rdf:RDF>
  </metadata>
  <g
     transform="translate(-70.171167,-65.149512)"
     id="layer1">
    <path
       id="path877"
       d="m 79.121342,78.456484 c -0.67301,-0.004 -2.797855,4.95463 -6.616134,15.43989 -2.185749,6.002311 -2.539791,7.422686 -2.243791,9.000486 0.2232,1.18976 1.938592,3.37355 3.099551,3.9455 0.490742,0.24176 0.953228,0.44245 1.02733,0.44545 0.221618,0.01 0.669375,-0.80049 4.135662,-7.487405 4.980371,-9.607741 9.470274,-15.951491 12.319662,-17.405141 2.282142,-1.16426 2.492898,-0.41048 0.74931,2.68252 -3.681611,6.53092 -6.066022,13.831971 -5.760373,17.639756 0.194299,2.42059 1.326914,4.02289 3.148645,4.45503 1.018421,0.24159 1.523137,-0.39372 2.860807,-3.59875 4.079272,-9.773786 5.178587,-11.892216 8.369519,-16.128216 2.17455,-2.88674 3.95175,-4.62401 5.30975,-5.19142 2.0645,-0.8626 2.17693,0.15088 0.36794,3.31246 -4.54476,7.94288 -6.913262,16.575596 -5.37538,19.591576 0.67534,1.32442 1.66805,1.93923 3.35897,2.07946 3.02468,0.25083 5.57161,-1.84171 9.64747,-7.926135 1.92862,-2.879021 2.13893,-3.316901 2.12493,-4.419881 -0.0134,-1.05114 -0.0601,-1.15389 -0.33073,-0.72812 -0.83407,1.31223 -4.02698,5.415881 -4.76973,6.130376 -2.55526,2.45807 -3.88803,2.23527 -3.29592,-0.551395 0.35665,-1.678471 2.23111,-6.072881 4.08502,-9.576161 2.73676,-5.1716 3.3673,-7.79401 2.31458,-9.62732 -1.172,-2.04104 -4.63374,-2.72146 -7.14271,-1.40405 -1.36082,0.71453 -4.73388,3.84785 -6.48384,6.02341 -1.104562,1.37321 -1.263542,1.32763 -0.633042,-0.18139 0.50835,-1.21667 0.50873,-3.15806 5.2e-4,-4.14083 -0.21813,-0.42181 -0.83034,-1.09762 -1.36013,-1.50172 -0.7842,-0.59813 -1.29683,-0.75352 -2.757968,-0.83612 -1.512959,-0.0855 -2.034916,0.008 -3.322794,0.5979 -2.373162,1.08647 -5.478777,4.43097 -9.048028,9.74307 -1.63776,2.43747 -3.045806,4.43177 -3.129007,4.43177 -0.31179,0 0.211759,-1.3554 1.801439,-4.66276 1.38312,-2.87761 1.653263,-3.6744 1.737363,-5.12682 0.08009,-1.38273 -0.0051,-1.88628 -0.433049,-2.56832 -0.53831,-0.85787 -2.975433,-2.4517 -3.755842,-2.4567 z"
       style="fill:url(#linearGradient29755);stroke-width:0.26458335;fill-opacity:1" />
    <path
       id="path950"
       d="m 109.29654,65.149512 c -1.03783,-2e-6 -2.44698,1.083046 -2.54817,1.958536 -0.11005,0.95213 0.16398,2.075206 0.46147,1.891358 0.12477,-0.07711 0.37364,0.03706 0.55346,0.25373 0.17987,0.216681 0.23457,0.394293 0.12144,0.394293 -0.43498,0 0.75479,1.033843 1.29294,1.123444 1.52738,0.254389 3.03546,-1.595569 2.71095,-3.325378 -0.20924,-1.115351 -1.54242,-2.295983 -2.59209,-2.295983 z m -25.281661,2.116667 c -0.63373,0 -2.143368,1.468564 -2.348177,2.284613 -0.07954,0.3169 -0.0034,0.840052 0.168982,1.162204 0.25645,0.479279 0.248811,0.545655 -0.04341,0.366384 -0.254892,-0.156347 -0.237119,-0.0325 0.06201,0.431499 0.230539,0.3576 0.825846,0.858155 1.322916,1.112594 1.06398,0.544621 1.236901,0.553471 2.044319,0.10542 1.20686,-0.6697 2.101443,-2.763578 1.373045,-3.213756 -0.145521,-0.08993 -0.264584,-0.385186 -0.264584,-0.655775 0,-0.557149 -1.505696,-1.593183 -2.315104,-1.593183 z m 17.718301,2.900598 c -1.24079,-0.0095 -2.441042,0.774877 -2.43293,1.947166 0.0064,0.923021 0.8936,3.089535 1.3963,3.409096 0.92127,0.585629 2.9314,-0.384524 3.57652,-1.725994 0.44962,-0.93495 0.0276,-2.33177 -0.93276,-3.08715 -0.47097,-0.37047 -1.04314,-0.538816 -1.60713,-0.543118 z m -9.320365,0.803568 c -1.95689,0 -2.746896,2.116421 -1.432989,3.839041 0.374722,0.491281 0.642615,0.987769 0.595313,1.10381 -0.0473,0.116038 0.27141,0.279368 0.707969,0.362768 0.97626,0.186481 1.417588,0.06011 2.178677,-0.624769 0.87742,-0.789548 1.01568,-2.023086 0.36897,-3.290755 -0.606759,-1.189339 -0.955879,-1.390095 -2.41794,-1.390095 z"
       style="fill:url(#linearGradient29765);stroke-width:0.26458335;fill-opacity:1" />
  </g>
</svg>
